<?xml version="1.0" encoding="UTF-8"?>
<svg id="Layer_2" xmlns="http://www.w3.org/2000/svg" version="1.1" xmlns:xlink="http://www.w3.org/1999/xlink" viewBox="0 0 313.6 389.3">
  <!-- Generator: Adobe Illustrator 29.0.1, SVG Export Plug-In . SVG Version: 2.1.0 Build 192)  -->
  <defs>
    <style>
      .st0 {
        fill: #fff;
        font-family: Montserrat-Bold, Montserrat;
        font-size: 31.4px;
        font-weight: 700;
      }

      .st1 {
        fill: #ff5142;
      }
    </style>
  </defs>
  <g id="Layer_1-2">
    <path class="st1" d="M203.3,141.5h4.5c.3,0,.6-.3.6-.6v-9.7c0-.3-.3-.6-.6-.6h-35.1c-.3,0-.6.3-.6.6v8.5c0,.3.3.6.6.6h5.1c.3,0,.6.3.6.6v37.8c0,.5-.6.8-1,.4-2.7-2.5-10.1-8.1-20.3-7.3-5.9.5-10.2,2.9-12.7,4.5-.4.3-.9,0-.9-.5v-8.5c0-.3-.3-.6-.6-.6h-37.2c-.3,0-.6.3-.6.6v9.8c0,.3.3.6.6.6l4.9-.2c.3,0,.6.3.6.6v70.5c0,.3-.3.6-.6.6h-4.9c-.3,0-.6.3-.6.6v8.5c0,.3.3.6.6.6h37.4c.3,0,.6-.3.6-.6v-8.1c0-.3-.3-.6-.6-.6h-5.9c-.3,0-.6-.3-.6-.6v-21.5c0-.5.6-.8,1-.5,3,2.4,11.8,8.6,22.4,6.2,4.1-.9,7.1-2.8,9.2-4.4.4-.3,1,0,1,.5v2c0,.3.3.6.6.6h37.1c.3,0,.6-.3.6-.6v-10.4c0-.3-.3-.6-.6-.6h-4.5c-.3,0-.6-.3-.6-.6v-77.4c0-.3.3-.6.6-.6h0ZM162,220.4c-8.9,0-16.1-7.2-16.1-16.1s7.2-16.1,16.1-16.1,16.1,7.2,16.1,16.1-7.2,16.1-16.1,16.1h0Z"/>
  </g>
  <image width="244" height="132" transform="translate(371 129.5)" xlink:href="Profile Digiest Logo-1.png"/>
  <g>
    <g id="Layer_1-21" data-name="Layer_1-2">
      <path class="st1" d="M530.3,49.3h2.1c.2,0,.3-.1.3-.3v-4.6c0-.2-.1-.3-.3-.3h-16.7c-.2,0-.3.1-.3.3v4c0,.2.1.3.3.3h2.4c.2,0,.3.1.3.3v18c0,.2-.3.4-.5.2-1.3-1.2-4.8-3.9-9.7-3.5-2.8.2-4.9,1.4-6,2.2-.2.1-.4,0-.4-.2v-4.1c0-.2-.1-.3-.3-.3h-17.7c-.2,0-.3.1-.3.3v4.7c0,.2.1.3.3.3h2.3c.2-.1.3,0,.3.2v33.6c0,.2-.1.3-.3.3h-2.4c-.2,0-.3.1-.3.3v4c0,.2.1.3.3.3h17.8c.2,0,.3-.1.3-.3v-3.9c0-.2-.1-.3-.3-.3h-2.8c-.2,0-.3-.1-.3-.3v-10.3c0-.2.3-.4.5-.2,1.4,1.2,5.6,4.1,10.7,3,1.9-.4,3.4-1.3,4.4-2.1.2-.1.5,0,.5.2v.9c0,.2.1.3.3.3h17.7c.2,0,.3-.1.3-.3v-5c0-.2-.1-.3-.3-.3h-2.1c-.2,0-.3-.1-.3-.3v-36.9c0-.2.1-.3.3-.3h0ZM510.6,86.9c-4.2,0-7.7-3.4-7.7-7.7s3.4-7.7,7.7-7.7,7.7,3.4,7.7,7.7-3.4,7.7-7.7,7.7h0Z"/>
    </g>
    <text class="st0" transform="translate(540.1 83.9)"><tspan x="0" y="0">Profile Digest</tspan></text>
  </g>
</svg>