<?xml version="1.0" encoding="UTF-8"?>
<svg id="Layer_2" data-name="Layer 2" xmlns="http://www.w3.org/2000/svg" viewBox="0 0 313.6 389.33">
  <defs>
    <style>
      .cls-1 {
        fill: #ff5142;
      }
    </style>
  </defs>
  <g id="Layer_1-2" data-name="Layer 1">
    <path class="cls-1" d="M298.2,32.99h13.61c.99,0,1.79-.8,1.79-1.79V1.79c0-.99-.8-1.79-1.79-1.79h-106.53c-.99,0-1.79.8-1.79,1.79v25.69c0,.99.8,1.79,1.79,1.79h15.47c.99,0,1.79.8,1.79,1.79v114.84c0,1.55-1.83,2.37-2.98,1.33-8.3-7.48-30.78-24.64-61.6-22.26-17.78,1.37-31.09,8.7-38.54,13.79-1.19.81-2.8-.03-2.8-1.47v-25.86c0-.99-.8-1.79-1.79-1.79H1.79c-.99,0-1.79.8-1.79,1.79v29.78c0,1.02.86,1.84,1.88,1.79l14.83-.74c1.02-.05,1.88.76,1.88,1.79v214.22c0,.99-.8,1.79-1.79,1.79H1.79c-.99,0-1.79.8-1.79,1.79v25.69c0,.99.8,1.79,1.79,1.79h113.5c.99,0,1.79-.8,1.79-1.79v-24.76c0-.99-.8-1.79-1.79-1.79h-17.79c-.99,0-1.79-.8-1.79-1.79v-65.39c0-1.51,1.75-2.34,2.92-1.38,9.03,7.4,35.81,26.23,67.94,18.96,12.32-2.79,21.69-8.56,28-13.52,1.17-.92,2.89-.08,2.89,1.41v6.03c0,.99.8,1.79,1.79,1.79h112.57c.99,0,1.79-.8,1.79-1.79v-31.73c0-.99-.8-1.79-1.79-1.79h-13.61c-.99,0-1.79-.8-1.79-1.79V34.77c0-.99.8-1.79,1.79-1.79ZM172.71,272.95c-27.01,0-48.9-21.89-48.9-48.9s21.89-48.9,48.9-48.9,48.9,21.89,48.9,48.9-21.89,48.9-48.9,48.9Z"/>
  </g>
</svg>